<?xml version="1.0" encoding="utf-8"?>
<svg version="1.1" id="Layer_1" xmlns="http://www.w3.org/2000/svg" xmlns:xlink="http://www.w3.org/1999/xlink" x="0px" y="0px"
	 viewBox="0 0 372.7 214.5" style="0 0 372.7 214.5;" xml:space="preserve">
<g id="icon">
	<path id="eye" d="M261.6,189.7c-20.7,9.2-41.2,14.9-62.8,16.5c-43.5,3.2-82.2-10.6-118.7-32.6
		c-26.2-15.8-49.6-35.1-70.5-57.4c-8.6-9.2-8.8-14.2-0.2-23.3C45.1,55.3,85.9,25.4,135.9,9.8C179.9-4,222.7,1.1,264.3,20.2
		c38.8,17.8,71.9,43.4,100.8,74.6c5.5,6,6.1,12.1,1.4,17.6c-17,19.3-36.4,35.8-57.6,50.8c-6.5-4.7-12.9-9.4-18.6-13.6
		c17.8-14.6,35.5-29.2,52.9-43.6c-0.7-1.7-0.8-2.3-1.1-2.6c-33.9-34.5-73.2-59.9-120.1-73c-29.7-8.3-58.7-5.4-87.5,5
		C94.2,50,59.8,73.5,29.3,104.7c8.5,7.7,16.7,15.4,25.3,22.7c31.3,26.3,66.6,44.7,106.7,53.5c24.7,5.4,48.9,2.3,72.5-6.1
		c3.6-1.3,6.2-1.1,9.3,1.4C248.8,180.7,254.9,184.8,261.6,189.7z"/>
	<path id="search" d="M235.9,151.1c-30.3,29.5-71.9,25.8-96.5,2.1c-24.7-23.8-27.8-62.5-7.1-89.7
		c21.1-27.7,58.8-35.1,88.6-17.4c28,16.5,43.6,54,24.9,91.1c3.9,2.8,7.9,5.7,11.9,8.5c0.5,0.3,1.4,0.5,1.8,0.2
		c4.6-2.8,7.7,0.1,11.1,2.5c18.3,13,36.7,26,55.1,39c5,3.5,5.7,6.2,2.9,11.8c-0.8,1.5-1.8,3-2.8,4.3c-8.4,10.8-10.5,11-21.6,3.2
		c-17.2-12.2-34.5-24.4-51.7-36.6c-3.1-2.2-5.9-4.1-4.8-8.7c0.2-0.9-1-2.4-1.9-3.1C242.6,155.8,239.3,153.6,235.9,151.1z
		 M186.6,55.4c-27.2-0.1-49.4,21.9-49.4,48.9c-0.1,27,22,49.2,49.1,49.3c26.9,0.1,49.3-22.3,49.2-49.2
		C235.4,77.4,213.5,55.5,186.6,55.4z"/>
	<path id="pupil" d="M162.5,104.4c-0.1-13.3,10.5-23.9,23.8-24c13.3,0,23.9,10.6,23.9,23.8
		c0,13.4-10.4,23.8-23.8,23.9C173,128.3,162.5,117.8,162.5,104.4z"/>
</g>
</svg>
